<svg width="309" height="138" viewBox="0 0 309 138" fill="none" xmlns="http://www.w3.org/2000/svg">
<rect width="309" height="138" fill="white"/>
<path d="M183.824 98.037C182.48 98.037 181.138 97.6098 179.967 96.7553L157 79.9919L134.033 96.7553C131.696 98.462 128.673 98.465 126.331 96.7637C123.99 95.0631 123.059 92.1868 123.959 89.4356L132.805 62.413L109.721 45.7199C107.379 44.0254 106.442 41.1537 107.332 38.404C108.222 35.6536 110.665 33.8767 113.555 33.8767H119.504C120.582 33.8767 121.457 34.7511 121.457 35.8299C121.457 36.9079 120.582 37.7822 119.504 37.7822H113.555C112.141 37.7822 111.333 38.7252 111.047 39.6072C110.762 40.4892 110.865 41.7266 112.01 42.5544L136.249 60.0838C136.936 60.5812 137.224 61.467 136.96 62.2742L127.671 90.6518C127.231 91.9968 127.876 93.0588 128.627 93.6043C129.378 94.1498 130.587 94.4352 131.731 93.6005L155.849 75.9972C156.535 75.4967 157.465 75.4967 158.151 75.9972L182.269 93.6005C183.413 94.4352 184.622 94.1498 185.373 93.6043C186.124 93.0588 186.769 91.9968 186.329 90.6518L177.04 62.2742C176.776 61.467 177.064 60.5812 177.752 60.0838L201.99 42.5544C203.135 41.7266 203.239 40.4892 202.953 39.6072C202.667 38.7252 201.859 37.7822 200.445 37.7822H170.532C169.685 37.7822 168.935 37.2367 168.674 36.4303L159.508 8.07484C159.073 6.72901 157.927 6.24912 157 6.24912C156.072 6.24912 154.926 6.72901 154.492 8.07484L145.326 36.4303C145.065 37.236 144.315 37.7822 143.467 37.7822H135.128C134.049 37.7822 133.175 36.9079 133.175 35.8291C133.175 34.7511 134.049 33.8767 135.128 33.8767H142.046L150.775 6.87321C151.665 4.12204 154.108 2.34363 157 2.34363C159.892 2.34363 162.335 4.12128 163.225 6.87321L171.954 33.8767H200.444C203.335 33.8767 205.778 35.6536 206.668 38.404C207.559 41.1544 206.62 44.0254 204.278 45.7199L181.195 62.413L190.041 89.4356C190.941 92.1868 190.01 95.0631 187.669 96.7637C186.5 97.6128 185.162 98.037 183.824 98.037V98.037Z" fill="black"/>
<path d="M127.315 37.7861C126.801 37.7861 126.298 37.5786 125.935 37.2155C125.572 36.8523 125.363 36.3488 125.363 35.833C125.363 35.3195 125.571 34.8152 125.935 34.4521C126.298 34.0889 126.801 33.8799 127.315 33.8799C127.829 33.8799 128.333 34.0889 128.696 34.4521C129.059 34.8175 129.268 35.3195 129.268 35.833C129.268 36.3488 129.059 36.85 128.696 37.2155C128.333 37.5786 127.829 37.7861 127.315 37.7861Z" fill="black"/>
<path d="M273.618 126.528C272.61 126.528 271.604 126.207 270.725 125.567L253.5 112.994L236.275 125.567C234.522 126.847 232.255 126.849 230.499 125.573C228.743 124.297 228.044 122.14 228.72 120.077L235.354 99.8099L218.041 87.29C216.284 86.0191 215.581 83.8653 216.249 81.8031C216.917 79.7403 218.749 78.4076 220.916 78.4076H225.378C226.186 78.4076 226.843 79.0634 226.843 79.8725C226.843 80.681 226.186 81.3368 225.378 81.3368H220.916C219.856 81.3368 219.25 82.044 219.036 82.7055C218.822 83.367 218.899 84.2951 219.758 84.9159L237.937 98.0629C238.452 98.436 238.668 99.1003 238.47 99.7057L231.503 120.989C231.173 121.998 231.657 122.794 232.22 123.203C232.783 123.612 233.69 123.826 234.548 123.2L252.637 109.998C253.151 109.623 253.849 109.623 254.364 109.998L272.452 123.2C273.31 123.826 274.217 123.612 274.78 123.203C275.343 122.794 275.827 121.998 275.497 120.989L268.53 99.7057C268.332 99.1003 268.548 98.436 269.064 98.0629L287.243 84.9159C288.101 84.2951 288.179 83.367 287.965 82.7055C287.751 82.044 287.144 81.3368 286.084 81.3368H263.649C263.014 81.3368 262.451 80.9276 262.255 80.3228L255.381 59.0562C255.055 58.0469 254.195 57.6869 253.5 57.6869C252.804 57.6869 251.945 58.0469 251.619 59.0562L244.744 80.3228C244.549 80.9271 243.986 81.3368 243.35 81.3368H237.096C236.287 81.3368 235.631 80.681 235.631 79.8719C235.631 79.0634 236.287 78.4076 237.096 78.4076H242.285L248.832 58.155C249.499 56.0916 251.331 54.7578 253.5 54.7578C255.669 54.7578 257.502 56.0911 258.169 58.155L264.715 78.4076H286.083C288.251 78.4076 290.084 79.7403 290.751 81.8031C291.419 83.8659 290.715 86.0191 288.959 87.29L271.646 99.8099L278.281 120.077C278.956 122.14 278.258 124.297 276.502 125.573C275.625 126.21 274.621 126.528 273.618 126.528V126.528Z" fill="black"/>
<path d="M231.236 81.3396C230.851 81.3396 230.473 81.184 230.201 80.9116C229.929 80.6392 229.772 80.2616 229.772 79.8748C229.772 79.4897 229.928 79.1114 230.201 78.8391C230.473 78.5667 230.851 78.4099 231.236 78.4099C231.622 78.4099 232 78.5667 232.272 78.8391C232.544 79.1132 232.701 79.4897 232.701 79.8748C232.701 80.2616 232.544 80.6375 232.272 80.9116C232 81.184 231.622 81.3396 231.236 81.3396Z" fill="black"/>
<path d="M70.6177 126.528C69.6101 126.528 68.6036 126.207 67.7252 125.567L50.5001 112.994L33.275 125.567C31.5218 126.847 29.2547 126.849 27.4986 125.573C25.7425 124.297 25.0444 122.14 25.7196 120.077L32.3538 99.8099L15.0411 87.29C13.2844 86.0191 12.5812 83.8653 13.249 81.8031C13.9167 79.7403 15.7489 78.4076 17.9165 78.4076H22.3779C23.1865 78.4076 23.8428 79.0634 23.8428 79.8725C23.8428 80.681 23.1865 81.3368 22.3779 81.3368H17.9165C16.8562 81.3368 16.2496 82.044 16.0356 82.7055C15.8216 83.367 15.8989 84.2951 16.7577 84.9159L34.9367 98.0629C35.4523 98.436 35.668 99.1003 35.47 99.7057L28.5034 120.989C28.1732 121.998 28.6573 122.794 29.2204 123.203C29.7834 123.612 30.6904 123.826 31.5481 123.2L49.6367 109.998C50.1511 109.623 50.8492 109.623 51.3636 109.998L69.4522 123.2C70.3099 123.826 71.2168 123.612 71.7799 123.203C72.3429 122.794 72.827 121.998 72.4969 120.989L65.5303 99.7057C65.3323 99.1003 65.548 98.436 66.0641 98.0629L84.2425 84.9159C85.1014 84.2951 85.1792 83.367 84.9647 82.7055C84.7506 82.044 84.1441 81.3368 83.0838 81.3368H60.6493C60.0136 81.3368 59.4511 80.9276 59.2555 80.3228L52.381 59.0562C52.0548 58.0469 51.1954 57.6869 50.5001 57.6869C49.8043 57.6869 48.9449 58.0469 48.6187 59.0562L41.7442 80.3228C41.5491 80.9271 40.9861 81.3368 40.3503 81.3368H34.0961C33.287 81.3368 32.6313 80.681 32.6313 79.8719C32.6313 79.0634 33.287 78.4076 34.0961 78.4076H39.2849L45.8315 58.155C46.4987 56.0916 48.3309 54.7578 50.5001 54.7578C52.6688 54.7578 54.5016 56.0911 55.1688 58.155L61.7154 78.4076H83.0832C85.2513 78.4076 87.0835 79.7403 87.7513 81.8031C88.4191 83.8659 87.7152 86.0191 85.9586 87.29L68.6465 99.8099L75.2806 120.077C75.9558 122.14 75.2578 124.297 73.5017 125.573C72.625 126.21 71.6214 126.528 70.6177 126.528V126.528Z" fill="black"/>
<path d="M28.2362 81.3396C27.8512 81.3396 27.4735 81.184 27.2011 80.9116C26.9288 80.6392 26.772 80.2616 26.772 79.8748C26.772 79.4897 26.9282 79.1114 27.2011 78.8391C27.4735 78.5667 27.8512 78.4099 28.2362 78.4099C28.6219 78.4099 28.9996 78.5667 29.2719 78.8391C29.5443 79.1132 29.7011 79.4897 29.7011 79.8748C29.7011 80.2616 29.5443 80.6375 29.2719 80.9116C28.9996 81.184 28.6219 81.3396 28.2362 81.3396Z" fill="black"/>
</svg>
