<svg width="309" height="138" viewBox="0 0 309 138" fill="none" xmlns="http://www.w3.org/2000/svg">
<rect width="309" height="138" fill="white"/>
<path d="M157 77.575L132.882 95.1783C129.283 97.8051 124.429 94.2788 125.815 90.0437L135.104 61.6661L110.866 44.1376C107.259 41.5291 109.105 35.8299 113.555 35.8299H143.467L152.633 7.47446C154.003 3.23784 159.997 3.23784 161.366 7.47446L170.532 35.8299H200.445C204.895 35.8299 206.74 41.5291 203.134 44.1376L178.896 61.6661L188.185 90.0437C189.571 94.2788 184.717 97.8051 181.118 95.1783L157 77.575Z" fill="#FFCB7C"/>
<path d="M183.824 98.037C182.48 98.037 181.138 97.6098 179.967 96.7553L157 79.9919L134.033 96.7553C131.696 98.462 128.673 98.465 126.331 96.7637C123.99 95.0631 123.059 92.1868 123.959 89.4356L132.805 62.413L109.721 45.7199C107.379 44.0254 106.442 41.1537 107.332 38.404C108.222 35.6536 110.665 33.8767 113.555 33.8767H119.504C120.582 33.8767 121.457 34.7511 121.457 35.8299C121.457 36.9079 120.582 37.7822 119.504 37.7822H113.555C112.141 37.7822 111.333 38.7252 111.047 39.6072C110.762 40.4891 110.865 41.7266 112.01 42.5544L136.249 60.0838C136.936 60.5812 137.224 61.467 136.96 62.2742L127.671 90.6517C127.231 91.9968 127.876 93.0588 128.627 93.6043C129.378 94.1498 130.587 94.4352 131.731 93.6005L155.849 75.9972C156.535 75.4967 157.465 75.4967 158.151 75.9972L182.269 93.6005C183.413 94.4352 184.622 94.1498 185.373 93.6043C186.124 93.0588 186.769 91.9968 186.329 90.6517L177.04 62.2742C176.776 61.467 177.064 60.5812 177.752 60.0838L201.99 42.5544C203.135 41.7266 203.239 40.4891 202.953 39.6072C202.667 38.7252 201.859 37.7822 200.445 37.7822H170.532C169.685 37.7822 168.935 37.2367 168.674 36.4303L159.508 8.07484C159.073 6.72901 157.927 6.24912 157 6.24912C156.072 6.24912 154.926 6.72901 154.492 8.07484L145.326 36.4303C145.065 37.236 144.315 37.7822 143.467 37.7822H135.128C134.049 37.7822 133.175 36.9079 133.175 35.8291C133.175 34.7511 134.049 33.8767 135.128 33.8767H142.046L150.775 6.87321C151.665 4.12204 154.108 2.34363 157 2.34363C159.892 2.34363 162.335 4.12128 163.225 6.87321L171.954 33.8767H200.444C203.335 33.8767 205.778 35.6536 206.668 38.404C207.559 41.1544 206.62 44.0254 204.278 45.7199L181.195 62.413L190.041 89.4356C190.941 92.1868 190.01 95.0631 187.669 96.7637C186.5 97.6128 185.162 98.037 183.824 98.037V98.037Z" fill="black"/>
<path d="M127.315 37.7861C126.801 37.7861 126.298 37.5786 125.935 37.2155C125.571 36.8523 125.362 36.3488 125.362 35.833C125.362 35.3196 125.571 34.8152 125.935 34.4521C126.298 34.0889 126.801 33.8799 127.315 33.8799C127.829 33.8799 128.333 34.0889 128.696 34.4521C129.059 34.8175 129.268 35.3196 129.268 35.833C129.268 36.3488 129.059 36.85 128.696 37.2155C128.333 37.5786 127.829 37.7861 127.315 37.7861Z" fill="black"/>
<path d="M50.5001 111.181L32.4115 124.384C29.7118 126.354 26.0715 123.709 27.1112 120.533L34.0778 99.2496L15.8994 86.1032C13.1946 84.1468 14.5787 79.8725 17.9164 79.8725H40.3503L47.2248 58.6059C48.2525 55.4284 52.7477 55.4284 53.7748 58.6059L60.6493 79.8725H83.0838C86.4214 79.8725 87.805 84.1468 85.1002 86.1032L66.9218 99.2496L73.8884 120.533C74.9281 123.709 71.2877 126.354 68.5886 124.384L50.5001 111.181Z" fill="#FFCB7C"/>
<path d="M70.6177 126.528C69.6101 126.528 68.6036 126.207 67.7252 125.567L50.5001 112.994L33.275 125.567C31.5218 126.847 29.2547 126.849 27.4986 125.573C25.7425 124.297 25.0444 122.14 25.7196 120.077L32.3538 99.8099L15.0411 87.29C13.2844 86.0191 12.5812 83.8653 13.249 81.8031C13.9167 79.7403 15.7489 78.4076 17.9165 78.4076H22.3779C23.1865 78.4076 23.8428 79.0634 23.8428 79.8725C23.8428 80.681 23.1865 81.3368 22.3779 81.3368H17.9165C16.8562 81.3368 16.2496 82.044 16.0356 82.7055C15.8216 83.367 15.8989 84.2951 16.7577 84.9159L34.9367 98.0629C35.4523 98.436 35.668 99.1003 35.47 99.7057L28.5034 120.989C28.1732 121.998 28.6573 122.794 29.2204 123.203C29.7834 123.612 30.6904 123.826 31.5481 123.2L49.6367 109.998C50.1511 109.623 50.8492 109.623 51.3636 109.998L69.4522 123.2C70.3099 123.826 71.2168 123.612 71.7799 123.203C72.3429 122.794 72.827 121.998 72.4969 120.989L65.5303 99.7057C65.3323 99.1003 65.548 98.436 66.0641 98.0629L84.2425 84.9159C85.1014 84.2951 85.1792 83.367 84.9647 82.7055C84.7506 82.044 84.1441 81.3368 83.0838 81.3368H60.6493C60.0136 81.3368 59.4511 80.9276 59.2555 80.3228L52.381 59.0562C52.0548 58.0469 51.1954 57.6869 50.5001 57.6869C49.8043 57.6869 48.9449 58.0469 48.6187 59.0562L41.7442 80.3228C41.5491 80.9271 40.9861 81.3368 40.3503 81.3368H34.0961C33.287 81.3368 32.6313 80.681 32.6313 79.8719C32.6313 79.0634 33.287 78.4076 34.0961 78.4076H39.2849L45.8315 58.155C46.4987 56.0916 48.3309 54.7578 50.5001 54.7578C52.6688 54.7578 54.5016 56.0911 55.1688 58.155L61.7154 78.4076H83.0832C85.2513 78.4076 87.0835 79.7403 87.7513 81.8031C88.4191 83.8659 87.7152 86.0191 85.9586 87.29L68.6465 99.8099L75.2806 120.077C75.9558 122.14 75.2578 124.297 73.5017 125.573C72.625 126.21 71.6214 126.528 70.6177 126.528V126.528Z" fill="black"/>
<path d="M28.2361 81.3396C27.851 81.3396 27.4734 81.184 27.201 80.9116C26.9286 80.6392 26.7719 80.2616 26.7719 79.8748C26.7719 79.4897 26.9281 79.1114 27.201 78.8391C27.4734 78.5667 27.851 78.4099 28.2361 78.4099C28.6218 78.4099 28.9994 78.5667 29.2718 78.8391C29.5442 79.1132 29.701 79.4897 29.701 79.8748C29.701 80.2616 29.5442 80.6375 29.2718 80.9116C28.9994 81.184 28.6218 81.3396 28.2361 81.3396Z" fill="black"/>
<path d="M254.5 111.181L236.412 124.384C233.712 126.354 230.071 123.709 231.111 120.533L238.078 99.2496L219.899 86.1032C217.195 84.1468 218.579 79.8725 221.916 79.8725H244.35L251.225 58.6059C252.252 55.4284 256.748 55.4284 257.775 58.6059L264.649 79.8725H287.084C290.421 79.8725 291.805 84.1468 289.1 86.1032L270.922 99.2496L277.888 120.533C278.928 123.709 275.288 126.354 272.589 124.384L254.5 111.181Z" fill="#FFCB7C"/>
<path d="M274.618 126.528C273.61 126.528 272.604 126.207 271.725 125.567L254.5 112.994L237.275 125.567C235.522 126.847 233.255 126.849 231.499 125.573C229.743 124.297 229.044 122.14 229.72 120.077L236.354 99.8099L219.041 87.29C217.284 86.0191 216.581 83.8653 217.249 81.8031C217.917 79.7403 219.749 78.4076 221.916 78.4076H226.378C227.186 78.4076 227.843 79.0634 227.843 79.8725C227.843 80.681 227.186 81.3368 226.378 81.3368H221.916C220.856 81.3368 220.25 82.044 220.036 82.7055C219.822 83.367 219.899 84.2951 220.758 84.9159L238.937 98.0629C239.452 98.436 239.668 99.1003 239.47 99.7057L232.503 120.989C232.173 121.998 232.657 122.794 233.22 123.203C233.783 123.612 234.69 123.826 235.548 123.2L253.637 109.998C254.151 109.623 254.849 109.623 255.364 109.998L273.452 123.2C274.31 123.826 275.217 123.612 275.78 123.203C276.343 122.794 276.827 121.998 276.497 120.989L269.53 99.7057C269.332 99.1003 269.548 98.436 270.064 98.0629L288.243 84.9159C289.101 84.2951 289.179 83.367 288.965 82.7055C288.751 82.044 288.144 81.3368 287.084 81.3368H264.649C264.014 81.3368 263.451 80.9276 263.255 80.3228L256.381 59.0562C256.055 58.0469 255.195 57.6869 254.5 57.6869C253.804 57.6869 252.945 58.0469 252.619 59.0562L245.744 80.3228C245.549 80.9271 244.986 81.3368 244.35 81.3368H238.096C237.287 81.3368 236.631 80.681 236.631 79.8719C236.631 79.0634 237.287 78.4076 238.096 78.4076H243.285L249.832 58.155C250.499 56.0916 252.331 54.7578 254.5 54.7578C256.669 54.7578 258.502 56.0911 259.169 58.155L265.715 78.4076H287.083C289.251 78.4076 291.084 79.7403 291.751 81.8031C292.419 83.8659 291.715 86.0191 289.959 87.29L272.646 99.8099L279.281 120.077C279.956 122.14 279.258 124.297 277.502 125.573C276.625 126.21 275.621 126.528 274.618 126.528V126.528Z" fill="black"/>
<path d="M232.236 81.3396C231.851 81.3396 231.473 81.184 231.201 80.9116C230.929 80.6392 230.772 80.2616 230.772 79.8748C230.772 79.4897 230.928 79.1114 231.201 78.8391C231.473 78.5667 231.851 78.4099 232.236 78.4099C232.622 78.4099 232.999 78.5667 233.272 78.8391C233.544 79.1132 233.701 79.4897 233.701 79.8748C233.701 80.2616 233.544 80.6375 233.272 80.9116C232.999 81.184 232.622 81.3396 232.236 81.3396Z" fill="black"/>
</svg>
